{"title":"The Glass Menagerie (1973) (TV) Katharine Hepburn Eng","uid":5070627,"size":735091196,"categoryP":"video","categoryS":"movies","magnet":"?xt=urn:btih:6bd9ec5a293d714e264f36d3a11dcde8cd12210c&amp;dn=The+Glass+Menagerie+%281973%29+%28TV%29+Katharine+Hepburn+Eng&amp;tr=udp%3A%2F%2Ftracker.openbittorrent.com%3A80&amp;tr=udp%3A%2F%2Fopen.demonii.com%3A1337&amp;tr=udp%3A%2F%2Ftracker.coppersurfer.tk%3A6969&amp;tr=udp%3A%2F%2Fexodus.desync.com%3A6969","seeders":2,"leechers":0,"uploader":"johnefp","files":-1,"time":1251331752,"description":"Previously filmed in 1950, Tennessee Williams' 1944 Broadway hit The Glass Menagerie was remade for television in 1973. Katharine Hepburn is top-billed as Amanda Wingfield, a faded southern belle who lives on her memories in a Depression-era St. Louis tenement. Sam Waterston narrates the story as Amanda's idealistic son Tom, who'd give anything to escape his mother's fantasy world. Tom's withdrawn, clubfooted sister Laura, who maintains the glass menagerie of the title, is portrayed by Joanna Miles, while Michael Moriarity plays the Gentleman Caller, whose presence disrupts the fragile existence of the Wingfield family unit. The Glass Menagerie represented Katharine Hepburn's TV movie debut, the first of many well-publicized, highly-lauded small screen appearances for the veteran actress. When originally telecast on December 16, 1973, The Glass Menagerie contained only one commercial interruption, thanks to the largess of sponsor IBM. \n\n\n &lt;a href=&quot;\nhttp://www.imdb.com/title/tt0070115/&quot; rel=&quot;nofollow&quot; target=&quot;_NEW&quot;&gt;\nhttp://www.imdb.com/title/tt0070115/&lt;/a&gt;\n\n\n\nAwards:\nWon 4 Primetime Emmys. Another 3 nominations \n\n\n\nDirector:\nAnthony Harvey\n\n\n\n        Katharine Hepburn ... \tAmanda Wingfield\n\n\tSam Waterston\t... \tTom Wingfield\n\n\tJoanna Miles\t... \tLaura Wingfield\n\tMichael Moriarty... \tJim O'Connor\n\n\n\nVideo\n      Format : MPEG-4 Visual\n      Format profile : Streaming Video@L1\n      Format settings, BVOP : Yes\n      Format settings, QPel : No\n      Format settings, GMC : No warppoints\n      Format settings, Matrix : Custom\n      Codec ID : XVID\n      Codec ID/Hint : XviD\n      Duration : 1h 44mn\n      Bit rate : 802 Kbps\n      Width : 656 pixels\n      Height : 496 pixels\n      Display aspect ratio : 4/3\n      Frame rate : 25.000 fps\n      Resolution : 24 bits\n      Colorimetry : 4:2:0\n      Scan type : Progressive\n      Bits/(Pixel*Frame) : 0.099\n      Stream size : 600 MiB (86%)\n      Writing library : XviD 50\n   Audio\n      Format : MPEG Audio\n      Format version : Version 1\n      Format profile : Layer 3\n      Codec ID : 55\n      Codec ID/Hint : MP3\n      Duration : 1h 44mn\n      Bit rate mode : Constant\n      Bit rate : 128 Kbps\n      Channel(s) : 2 channels\n      Sampling rate : 48.0 KHz\n      Resolution : 16 bits\n      Stream size : 95.7 MiB (14%)\n      Alignment : Aligned on interleaves\n      Interleave, duration : 80 ms (2.00 video frames)\n      Interleave, preload duration : 504 ms","torrent":{"xt":"urn:btih:6bd9ec5a293d714e264f36d3a11dcde8cd12210c","amp;dn":"The+Glass+Menagerie+%281973%29+%28TV%29+Katharine+Hepburn+Eng","amp;tr":["udp%3A%2F%2Ftracker.openbittorrent.com%3A80","udp%3A%2F%2Fopen.demonii.com%3A1337","udp%3A%2F%2Ftracker.coppersurfer.tk%3A6969","udp%3A%2F%2Fexodus.desync.com%3A6969"],"infoHash":"6bd9ec5a293d714e264f36d3a11dcde8cd12210c","infoHashBuffer":{"type":"Buffer","data":[107,217,236,90,41,61,113,78,38,79,54,211,161,29,205,232,205,18,33,12]},"announce":[],"urlList":[]}}